<svg xmlns="http://www.w3.org/2000/svg" xmlns:xlink="http://www.w3.org/1999/xlink" width="456" height="180" viewBox="0 0 456 180"><defs><style>.a{fill:none;stroke:#707070;}.b{clip-path:url(#a);}.c{fill:#fff;}.d{fill:url(#b);}.e{fill:url(#c);}.f{fill:url(#d);}.g{fill:url(#e);}.h{fill:url(#f);}.i{fill:url(#g);}.j{fill:url(#h);}.k{fill:url(#i);}.l{fill:url(#j);}.m{fill:#313f91;}</style><clipPath id="a"><rect class="a" width="456" height="180" transform="translate(883 803)"/></clipPath><linearGradient id="b" x1="0.853" y1="0.854" x2="0.146" y2="0.147" gradientUnits="objectBoundingBox"><stop offset="0" stop-color="#1483c6"/><stop offset="1" stop-color="#313f91"/></linearGradient><linearGradient id="c" x1="0" y1="0.5" x2="1" y2="0.5" xlink:href="#b"/><linearGradient id="d" x1="0.854" y1="0.147" x2="0.147" y2="0.854" xlink:href="#b"/><linearGradient id="e" x1="0.5" y1="0" x2="0.5" y2="1" xlink:href="#b"/><linearGradient id="f" x1="0.146" y1="0.853" x2="0.853" y2="0.146" xlink:href="#b"/><linearGradient id="g" x1="2.415" y1="0.744" x2="-1.415" y2="0.256" xlink:href="#b"/><linearGradient id="h" x1="0.853" y1="0.854" x2="0.146" y2="0.147" xlink:href="#b"/><linearGradient id="i" x1="1.697" y1="0.889" x2="-0.696" y2="0.111" xlink:href="#b"/><linearGradient id="j" x1="385.724" y1="45.334" x2="383.331" y2="44.556" xlink:href="#b"/></defs><g class="b" transform="translate(-883 -803)"><g transform="translate(836.03 780.112)"><g transform="translate(49.97 24.438)"><path class="c" d="M1089.758,1607.711l8.472,33a45.46,45.46,0,0,0,4.08,4.7l-11.246-43.789A45.1,45.1,0,0,0,1089.758,1607.711Zm1.612-7.126,15.969,49.157a44.179,44.179,0,0,0,3.724,2.477l-18.137-55.83A42.678,42.678,0,0,0,1091.37,1600.585Zm18.417,17.051-13.2-28.046c-.606.931-1.182,1.88-1.72,2.863l30.7,65.23c1.085.207,2.188.371,3.3.5l-13.223-28.1A24.353,24.353,0,0,1,1109.787,1617.635Zm11.766,17.291,12.925,23.516c1.038-.015,2.069-.068,3.09-.149l-11.76-21.394A23.63,23.63,0,0,1,1121.553,1634.926Zm12.244,3.345a23.992,23.992,0,0,1-3.091-.208l12.331,19.431c.964-.193,1.91-.434,2.838-.7l-11.75-18.534C1134.018,1638.271,1133.907,1638.271,1133.8,1638.271Zm17.1-7.07,13.837,14.746c.662-.643,1.314-1.3,1.939-1.987l-13.916-14.828A23.3,23.3,0,0,1,1150.9,1631.2Zm27.373-18.375-62.374-39.6c-1.008.45-1.982.922-2.947,1.432l24.038,15.244a24.363,24.363,0,0,1,17.229,10.948l24.031,15.244c.03-.7.051-1.409.051-2.118C1178.3,1613.589,1178.28,1613.2,1178.273,1612.826Zm-68.11-4.382-11.339-20.618,11.866,18.7a24.038,24.038,0,0,1,1.28-3.176l-10.8-17.018,11.462,15.775a24.914,24.914,0,0,1,1.613-2.505l-10.823-14.9,11.549,13.964a25.754,25.754,0,0,1,1.895-2.072l-11.307-13.659,12.131,12.893a25.346,25.346,0,0,1,2.183-1.719l-12.28-13.079,13.239,12.437a24.539,24.539,0,0,1,2.551-1.417L1109.489,1579l15.113,12.506a22.17,22.17,0,0,1,3.109-1.035l-16.445-13.607,18.2,13.223a23.791,23.791,0,0,1,4.181-.4l-20.7-15.036a44.739,44.739,0,0,0-16.337,14.9l12.917,23.5A24.269,24.269,0,0,1,1110.163,1608.444Zm-20.852,5.533a44.492,44.492,0,0,0,4.312,19.142l-4.207-22.071C1089.36,1612.018,1089.311,1612.987,1089.311,1613.977Zm3.808-18.009,23.353,59c1.145.484,2.317.911,3.507,1.3l-25.2-63.654C1094.173,1593.7,1093.623,1594.825,1093.119,1595.969Zm73.635-11.9-36.49-14.443a43.38,43.38,0,0,0-5.574.78l45.541,18.024A46.17,46.17,0,0,0,1166.754,1584.07Zm10.308,19.487-57.651-31.686c-1.144.39-2.282.825-3.38,1.3l61.747,33.955C1177.587,1605.919,1177.347,1604.726,1177.061,1603.556Zm-3.51-9.577-49.685-23.375c-1.4.314-2.759.7-4.091,1.142l55.5,26.118C1174.76,1596.532,1174.194,1595.243,1173.552,1593.979Zm-39.755-24.509c-.406,0-.811.021-1.214.031l28.352,9.217A44.254,44.254,0,0,0,1133.8,1569.471Zm23.811,49.343,16.623,13.763c.4-.884.776-1.779,1.125-2.687l-17.312-14.327A25.558,25.558,0,0,1,1157.608,1618.814Zm-2.506,6.839,14.982,14.069c.545-.758,1.064-1.542,1.566-2.342l-15.3-14.372A27.989,27.989,0,0,1,1155.1,1625.653Zm2.769-14.911,19.139,13.887c.237-.976.445-1.979.62-2.972l-20.676-15.034A24.005,24.005,0,0,1,1157.871,1610.742Zm-12.547,24.612,13.016,15.739c.773-.519,1.537-1.055,2.278-1.607l-12.91-15.6A25.753,25.753,0,0,1,1145.323,1635.353Zm-6.763,2.438L1151.054,1655c.869-.366,1.728-.769,2.569-1.188l-12.19-16.78A25.244,25.244,0,0,1,1138.561,1637.791Z" transform="translate(-1089.311 -1525.36)"/><path class="c" d="M1130.9,1613.38l20.2,44.167v-6.694l-20.2-44.156Zm0-17.824,20.2,52.348v-7.724l-20.2-52.339Zm16.844-26.086,3.358,14.722v-14.722Zm-41.128,133.26a45.214,45.214,0,0,0,11.3-1.457l-11.3-1.272Zm24.284-48.386,15.756,19.836-15.756-17.525v1.545c-.005.831-.046,1.655-.124,2.462l13.816,15.372-14.037-13.83a25.332,25.332,0,0,1-.74,3.168l12.814,12.634-13.193-11.517a24.194,24.194,0,0,1-1.164,2.677l12.545,10.951-13.026-10.051a23.468,23.468,0,0,1-1.5,2.353l12.814,9.886-13.4-9.1a23.993,23.993,0,0,1-1.855,2.1l13.7,9.3-14.442-8.574a26.865,26.865,0,0,1-2.294,1.871l15.322,9.1-16.324-8.4a23.365,23.365,0,0,1-2.921,1.621l17.965,9.237-19.5-8.575a24.933,24.933,0,0,1-4.179,1.193l22.564,9.935-25.785-9.538c-.443.031-.893.046-1.335.046v2.421l25.778,9.54a44.672,44.672,0,0,0,16.394-22.087l-17.888-22.513Zm0-84.874v1.653l20.2,63.541v-9.181l-17.806-56.012Zm8.657,0,11.545,45.746v-11.37l-8.675-34.376Zm-32.941,124.655,18.761,4.445q1.921-.9,3.741-1.961l-22.5-5.348Zm0-4.51,22.713,6.86c1.041-.6,2.054-1.273,3.04-1.978l-25.753-7.785Zm0,8.885,13.043,2.266a42.866,42.866,0,0,0,5.117-1.923l-18.16-3.161Zm24.284-71.465,19.8,37.149a44.569,44.569,0,0,0,.384-5.184l-20.182-37.87Zm0,10.886,18.931,30.856c.329-1.318.586-2.661.789-4.029l-19.72-32.141Zm0,8.909,17.888,25.555c.376-1.117.712-2.25,1-3.414L1130.9,1642Z" transform="translate(-1062.116 -1525.36)"/><path class="c" d="M1164.946,1658.016l32.98-8.468a45.9,45.9,0,0,0,4.705-4.075l-43.787,11.247A45.641,45.641,0,0,0,1164.946,1658.016Zm-7.135-1.6,49.16-15.98c.882-1.2,1.712-2.446,2.473-3.725l-55.822,18.136C1154.98,1655.429,1156.384,1655.959,1157.811,1656.417Zm17.049-18.433-28.046,13.2c.938.6,1.879,1.186,2.859,1.724l65.243-30.694c.2-1.093.378-2.2.5-3.314l-28.113,13.241A24.278,24.278,0,0,1,1174.86,1637.984Zm17.3-11.755,23.514-12.933c-.016-1.035-.065-2.065-.149-3.078l-21.392,11.744A25.082,25.082,0,0,1,1192.161,1626.228Zm3.333-12.251a23.767,23.767,0,0,1-.205,3.1l19.44-12.346c-.208-.96-.445-1.9-.706-2.834l-18.536,11.745C1195.491,1613.761,1195.494,1613.869,1195.494,1613.977Zm-7.058-17.1,14.741-13.827c-.648-.671-1.3-1.324-1.99-1.951l-14.815,13.921A24.727,24.727,0,0,1,1188.435,1596.876Zm-18.383-27.374-39.583,62.376c.437,1.008.9,2,1.417,2.941l15.249-24.019a24.334,24.334,0,0,1,10.938-17.242l15.247-24.028c-.7-.031-1.409-.059-2.116-.059C1170.813,1569.471,1170.435,1569.491,1170.052,1569.5Zm-4.379,68.126-20.618,11.329,18.7-11.874a26.109,26.109,0,0,1-3.173-1.273l-17.018,10.8,15.771-11.462a26.328,26.328,0,0,1-2.5-1.614l-14.9,10.832,13.969-11.554a23.24,23.24,0,0,1-2.067-1.9l-13.674,11.313,12.915-12.121a24.88,24.88,0,0,1-1.736-2.2l-13.069,12.293,12.429-13.257a25.43,25.43,0,0,1-1.417-2.546l-13.043,13.9,12.506-15.126a23.054,23.054,0,0,1-1.039-3.1l-13.6,16.446,13.224-18.2a24.4,24.4,0,0,1-.4-4.185l-15.033,20.689a44.481,44.481,0,0,0,14.9,16.342l23.5-12.912A25.754,25.754,0,0,1,1165.673,1637.628Zm5.531,20.837a44.284,44.284,0,0,0,19.142-4.324l-22.071,4.214C1169.245,1658.419,1170.219,1658.466,1171.2,1658.466Zm-18.005-3.81,59-23.351c.481-1.149.9-2.322,1.3-3.51l-63.656,25.216C1150.923,1653.606,1152.057,1654.152,1153.2,1654.655Zm-11.9-73.635-14.447,36.5a43.993,43.993,0,0,0,.781,5.558l18.029-45.535A46.254,46.254,0,0,0,1141.3,1581.02Zm19.481-10.308-31.684,57.643c.393,1.161.82,2.3,1.309,3.4L1164.352,1570C1163.152,1570.188,1161.964,1570.429,1160.783,1570.712Zm-9.577,3.51-23.382,49.677q.485,2.1,1.154,4.1l26.115-55.5A42.487,42.487,0,0,0,1151.206,1574.222Zm-24.5,39.755c0,.412.016.815.031,1.224l9.207-28.356A44.3,44.3,0,0,0,1126.7,1613.977Zm49.343-23.812,13.748-16.625c-.877-.4-1.764-.782-2.673-1.129l-14.322,17.323A23.358,23.358,0,0,1,1176.046,1590.166Zm6.829,2.509,14.067-14.982c-.761-.542-1.535-1.062-2.332-1.561l-14.376,15.3A25.333,25.333,0,0,1,1182.875,1592.675Zm-14.91-2.777,13.9-19.127c-.98-.245-1.977-.455-2.985-.617l-15.015,20.674A23.633,23.633,0,0,1,1167.964,1589.9Zm24.616,12.563,15.738-13.023c-.517-.773-1.047-1.535-1.607-2.275L1191.1,1600.07A23.363,23.363,0,0,1,1192.581,1602.461Zm2.438,6.756,17.2-12.5c-.36-.874-.769-1.724-1.2-2.566l-16.77,12.19A23.9,23.9,0,0,1,1195.018,1609.217Z" transform="translate(-1030.562 -1525.36)"/><path class="c" d="M1153.445,1595.119l20.214,25.437v-4.466l-20.214-25.439Zm0,9.879,20.214,22.5v-4.16l-20.214-22.5Zm0-21.392,20.214,28.869v-4.842l-20.214-28.866Zm0,74.72h4.885l-4.885-1.818Zm8.7-88.766,11.516,21.613v-5.908l-8.364-15.7Zm-8.7,44.087,20.214,19.937v-3.919l-20.214-19.916Zm0-44.087v.362l20.214,32.954v-5.324l-17.165-27.992Zm20.111,0h-3.062l3.165,6.908v-6.679Zm-20.111,51.755,20.214,17.656v-3.687l-20.214-17.638Zm0,34.347,7.21,2.664h8.011l-15.221-5.628Zm0-9.917,20.214,10.408v-3.137l-20.214-10.406Zm0,5.09,17.018,7.49h3.2V1656.7l-20.214-8.909Zm0-10.492,20.214,11.991v-3.229l-20.214-11.99Zm0-12.113,20.214,15.6v-3.518l-20.214-15.6Zm0,6.3,20.214,13.728v-3.353l-20.214-13.735Z" transform="translate(-988.547 -1525.221)"/><path class="c" d="M1216.022,1569.912l-32.98,8.475a44.571,44.571,0,0,0-4.713,4.08l43.785-11.238A44.188,44.188,0,0,0,1216.022,1569.912Zm7.14,1.62L1174,1587.506a39.527,39.527,0,0,0-2.479,3.721l55.821-18.144A43.043,43.043,0,0,0,1223.162,1571.532Zm-17.06,18.415,28.039-13.2c-.923-.6-1.877-1.19-2.846-1.722l-65.24,30.7c-.209,1.09-.368,2.181-.5,3.3l28.1-13.237A24.372,24.372,0,0,1,1206.1,1589.947Zm-17.3,11.766-23.508,12.933c.015,1.028.061,2.059.146,3.072l21.4-11.753A23.628,23.628,0,0,1,1188.807,1601.713Zm-3.335,12.253a23.414,23.414,0,0,1,.211-3.1l-19.442,12.326q.313,1.442.72,2.845l18.518-11.76C1185.472,1614.176,1185.472,1614.075,1185.472,1613.966Zm7.056,17.081L1177.79,1644.9c.648.667,1.3,1.312,2,1.931l14.82-13.914A22.811,22.811,0,0,1,1192.527,1631.047Zm18.388,27.38,39.593-62.371c-.45-1-.923-1.984-1.435-2.939l-15.25,24.028a24.267,24.267,0,0,1-10.935,17.224l-15.25,24.043c.707.03,1.4.054,2.127.054C1210.139,1658.466,1210.536,1658.442,1210.916,1658.427Zm4.384-68.115,20.613-11.323-18.7,11.866a24.054,24.054,0,0,1,3.165,1.277l17.019-10.8-15.777,11.46a22.5,22.5,0,0,1,2.507,1.622l14.908-10.83-13.969,11.55a23.894,23.894,0,0,1,2.072,1.894l13.658-11.307-12.9,12.123a27.494,27.494,0,0,1,1.738,2.18l13.069-12.269-12.434,13.231a25.81,25.81,0,0,1,1.422,2.545l13.036-13.886-12.509,15.114a23.93,23.93,0,0,1,1.047,3.11l13.6-16.442-13.224,18.2a24.516,24.516,0,0,1,.4,4.183l15.026-20.692a44.656,44.656,0,0,0-14.9-16.343l-23.5,12.92A24.969,24.969,0,0,1,1215.3,1590.312Zm-5.533-20.841a44.457,44.457,0,0,0-19.142,4.312l22.06-4.2C1211.721,1569.515,1210.743,1569.471,1209.767,1569.471Zm18,3.8-58.982,23.351c-.488,1.148-.915,2.322-1.3,3.51l63.662-25.2C1230.045,1574.33,1228.912,1573.782,1227.762,1573.273Zm11.9,73.646,14.445-36.487a44.182,44.182,0,0,0-.777-5.579l-18.029,45.535A45.934,45.934,0,0,0,1239.667,1646.919Zm-19.492,10.3,31.7-57.652c-.4-1.157-.823-2.283-1.312-3.389l-33.96,61.754C1217.814,1657.751,1219,1657.494,1220.174,1657.224Zm9.583-3.517,23.382-49.685c-.317-1.385-.705-2.756-1.147-4.093l-26.123,55.511A41.754,41.754,0,0,0,1229.757,1653.707Zm24.516-39.74c0-.412-.024-.818-.031-1.224l-9.22,28.355A44.293,44.293,0,0,0,1254.274,1613.966Zm-49.348,23.8-13.746,16.623c.874.4,1.766.776,2.669,1.125l14.327-17.313A23.588,23.588,0,0,1,1204.925,1637.768Zm-6.834-2.514-14.069,14.985c.76.553,1.542,1.08,2.334,1.569l14.379-15.3A24.448,24.448,0,0,1,1198.091,1635.253ZM1213,1638.03l-13.9,19.148c.985.231,1.962.434,2.98.612l15.016-20.675A23.622,23.622,0,0,1,1213,1638.03Zm-24.616-12.555-15.735,13.023c.516.781,1.046,1.536,1.615,2.281l15.6-12.919A21.667,21.667,0,0,1,1188.388,1625.475Zm-2.437-6.764-17.2,12.505c.365.87.758,1.731,1.185,2.572l16.772-12.192A26.64,26.64,0,0,1,1185.951,1618.711Z" transform="translate(-969.922 -1525.36)"/><path class="c" d="M1165.3,1658.033l8.9,27.388h2.908l-11.807-36.375Zm0-20.006,18.754,47.394h1.457v-3.888l-20.211-51.05Zm20.211-85.712H1165.3v24.447l20.211,16.72v-3.6l-20.18-16.692,20.18,14.661v-3.441l-18.53-13.455,18.53,11.76v-3.292l-17.064-10.832,17.064,9.384V1574.8l-15.7-8.631,15.7,7.389v-3.077l-14.526-6.83,14.526,5.745v-2.986l-13.5-5.347,13.5,4.386v-2.918l-12.645-4.106,12.645,3.24V1558.8l-11.973-3.07,11.973,2.278v-2.824L1174.064,1553l11.446,1.448ZM1165.3,1685.421h3.712l-3.712-10.369Zm0-61.883,20.211,42.954v-6.518l-20.211-42.956Zm0-33.064,20.211,24.418v-4.356L1165.3,1586.1Zm0-9.7,20.211,18.98v-3.81l-20.211-18.983Zm0,4.51,20.211,21.531v-4.057l-20.211-21.52Zm0,18.406,20.211,31.852v-5.186L1165.3,1598.51Zm0-7.194,20.211,27.819v-4.728l-20.211-27.817Zm0,15.979,20.211,36.758v-5.758l-20.211-36.762Z" transform="translate(-969.922 -1552.314)"/><path class="c" d="M1214.57,1607.722l8.467,32.99a45.063,45.063,0,0,0,4.083,4.7l-11.246-43.789A44.342,44.342,0,0,0,1214.57,1607.722Zm1.615-7.132,15.972,49.163a44.274,44.274,0,0,0,3.718,2.469L1217.73,1596.4C1217.154,1597.759,1216.635,1599.154,1216.185,1600.59Zm18.415,17.049-13.193-28.049c-.6.934-1.193,1.89-1.722,2.865l30.694,65.238q1.628.311,3.307.488l-13.226-28.093A24.384,24.384,0,0,1,1234.6,1617.639Zm11.766,17.291,12.914,23.523c1.047-.024,2.081-.072,3.1-.157l-11.757-21.394A23.776,23.776,0,0,1,1246.365,1634.93Zm12.246,3.353a26.983,26.983,0,0,1-3.1-.209l12.339,19.415c.962-.192,1.908-.426,2.849-.688l-11.773-18.525C1258.838,1638.275,1258.719,1638.283,1258.611,1638.283Zm17.1-7.07,13.838,14.745c.677-.651,1.319-1.3,1.949-2l-13.915-14.819A23.608,23.608,0,0,1,1275.707,1631.213Zm27.381-18.379-62.371-39.591c-1,.437-1.98.911-2.95,1.427l24.028,15.246a24.278,24.278,0,0,1,17.227,10.938l24.034,15.244c.032-.7.054-1.4.054-2.113C1303.11,1613.591,1303.095,1613.209,1303.087,1612.833Zm-68.116-4.387-11.328-20.618,11.858,18.7a21.241,21.241,0,0,1,1.288-3.176l-10.8-17.012,11.462,15.779a24.035,24.035,0,0,1,1.607-2.514l-10.82-14.9,11.55,13.96a25.756,25.756,0,0,1,1.892-2.071l-11.308-13.657,12.124,12.9c.7-.6,1.419-1.185,2.18-1.722l-12.285-13.074,13.254,12.432a23.579,23.579,0,0,1,2.548-1.418l-13.892-13.038,15.108,12.5a23.936,23.936,0,0,1,3.114-1.027l-16.437-13.613,18.2,13.223a24.828,24.828,0,0,1,4.183-.4l-20.7-15.022a44.6,44.6,0,0,0-16.345,14.9l12.915,23.5A24.648,24.648,0,0,1,1234.972,1608.447Zm-20.852,5.539a44.531,44.531,0,0,0,4.314,19.145l-4.2-22.084C1214.166,1612.021,1214.12,1612.99,1214.12,1613.985Zm3.8-18.009,23.359,59c1.142.476,2.322.9,3.507,1.3l-25.205-63.664C1218.987,1593.706,1218.434,1594.832,1217.922,1595.977Zm73.648-11.9-36.5-14.45a45,45,0,0,0-5.564.787l45.53,18.016A46.8,46.8,0,0,0,1291.571,1584.079Zm10.305,19.488-57.661-31.7c-1.139.391-2.266.823-3.384,1.309l61.752,33.945C1302.4,1605.93,1302.157,1604.734,1301.876,1603.567Zm-3.515-9.578-49.69-23.382c-1.375.322-2.748.707-4.083,1.144l55.5,26.118A40.145,40.145,0,0,0,1298.361,1593.989Zm-39.75-24.51c-.411,0-.822.023-1.227.033l28.365,9.21A44.262,44.262,0,0,0,1258.611,1569.479Zm23.809,49.335,16.615,13.765c.411-.877.784-1.768,1.133-2.686l-17.314-14.326A26.677,26.677,0,0,1,1282.42,1618.814Zm-2.514,6.842,15,14.069c.535-.758,1.062-1.543,1.558-2.342l-15.3-14.374A25.051,25.051,0,0,1,1279.906,1625.656Zm2.779-14.911,19.129,13.887c.242-.97.442-1.972.619-2.973l-20.664-15.025A24.221,24.221,0,0,1,1282.685,1610.745Zm-12.55,24.612,13.015,15.739q1.153-.78,2.281-1.607l-12.921-15.6A27.559,27.559,0,0,1,1270.135,1635.357Zm-6.767,2.437,12.5,17.214c.869-.365,1.731-.776,2.569-1.195l-12.2-16.778A23.7,23.7,0,0,1,1263.368,1637.794Z" transform="translate(-893.217 -1525.347)"/><path class="c" d="M1261.221,1658.956v-.126l-20.44-77.574v11.895l17.345,65.806Zm0-89.8h-2.653l2.653,3.177Zm0,62.325-19.828-59.746,19.828,49.176v-8.1l-17.01-42.2,17.01,35.58v-7.027l-14.28-29.867,14.28,25.606v-6.214l-10.9-19.535h-9.544v10.351l20.44,61.589Zm-20.386,27.472h3.065l-3.118-23.454v22.988Zm20.386-85.527-3.142-4.27h-3.757l6.9,9.387Zm0,6.9-7.178-11.171h-3.6l10.778,16.767Zm-8.762,78.626-11.678-59.2V1615.4l8.6,43.561Z" transform="translate(-851.328 -1525.85)"/><path class="c" d="M1203.073,1569.159v.121l20.441,77.569V1634.96l-17.345-65.8Zm0,89.8h2.661l-2.661-3.167Zm0-62.322,19.829,59.746-19.829-49.178v8.094l17.019,42.2-17.019-35.574v7.017l14.288,29.877-14.288-25.6v6.209l10.9,19.533h9.544V1648.61l-20.441-61.582Zm20.379-27.475h-3.772l3.834,24.169v-23.709Zm-20.379,85.522,3.144,4.275h3.762l-6.906-9.381Zm0-6.894,7.186,11.169h3.595l-10.781-16.757Zm8.754-78.628,11.686,59.2v-15.633l-8.6-43.563Z" transform="translate(-910.573 -1525.85)"/><path class="c" d="M1267.331,1619.4a11.9,11.9,0,0,0,8.824-3.671,12.153,12.153,0,0,0,3.672-8.894,11.859,11.859,0,0,0-3.672-8.817,12.092,12.092,0,0,0-8.9-3.677,12.333,12.333,0,0,0-4.788.916l9.9,3.15-11.144-2.53a13.484,13.484,0,0,0-2.772,2.14c-.077.086-.146.173-.216.243l13.643,2.949-14.489-1.995a12.775,12.775,0,0,0-1.637,2.684l15.823,2.149-16.25-1.008a11.607,11.607,0,0,0-.512,2.833l16.576,1.024-16.6.181a13.608,13.608,0,0,0,.358,2.861l16.288-.185-15.932,1.342a11.218,11.218,0,0,0,1.4,2.764l14.735-1.274-13.982,2.274c.255.295.519.587.8.869a12.916,12.916,0,0,0,2,1.645l11.563-1.956-10.383,2.656A12.422,12.422,0,0,0,1267.331,1619.4Z" transform="translate(-829.315 -1486.289)"/><path class="d" d="M1089.758,1607.711l8.472,33a45.46,45.46,0,0,0,4.08,4.7l-11.246-43.789A45.1,45.1,0,0,0,1089.758,1607.711Zm1.612-7.126,15.969,49.157a44.179,44.179,0,0,0,3.724,2.477l-18.137-55.83A42.678,42.678,0,0,0,1091.37,1600.585Zm18.417,17.051-13.2-28.046c-.606.931-1.182,1.88-1.72,2.863l30.7,65.23c1.085.207,2.188.371,3.3.5l-13.223-28.1A24.353,24.353,0,0,1,1109.787,1617.635Zm11.766,17.291,12.925,23.516c1.038-.015,2.069-.068,3.09-.149l-11.76-21.394A23.63,23.63,0,0,1,1121.553,1634.926Zm12.244,3.345a23.992,23.992,0,0,1-3.091-.208l12.331,19.431c.964-.193,1.91-.434,2.838-.7l-11.75-18.534C1134.018,1638.271,1133.907,1638.271,1133.8,1638.271Zm17.1-7.07,13.837,14.746c.662-.643,1.314-1.3,1.939-1.987l-13.916-14.828A23.3,23.3,0,0,1,1150.9,1631.2Zm27.373-18.375-62.374-39.6c-1.008.45-1.982.922-2.947,1.432l24.038,15.244a24.363,24.363,0,0,1,17.229,10.948l24.031,15.244c.03-.7.051-1.409.051-2.118C1178.3,1613.589,1178.28,1613.2,1178.273,1612.826Zm-68.11-4.382-11.339-20.618,11.866,18.7a24.038,24.038,0,0,1,1.28-3.176l-10.8-17.018,11.462,15.775a24.914,24.914,0,0,1,1.613-2.505l-10.823-14.9,11.549,13.964a25.754,25.754,0,0,1,1.895-2.072l-11.307-13.659,12.131,12.893a25.346,25.346,0,0,1,2.183-1.719l-12.28-13.079,13.239,12.437a24.539,24.539,0,0,1,2.551-1.417L1109.489,1579l15.113,12.506a22.17,22.17,0,0,1,3.109-1.035l-16.445-13.607,18.2,13.223a23.791,23.791,0,0,1,4.181-.4l-20.7-15.036a44.739,44.739,0,0,0-16.337,14.9l12.917,23.5A24.269,24.269,0,0,1,1110.163,1608.444Zm-20.852,5.533a44.492,44.492,0,0,0,4.312,19.142l-4.207-22.071C1089.36,1612.018,1089.311,1612.987,1089.311,1613.977Zm3.808-18.009,23.353,59c1.145.484,2.317.911,3.507,1.3l-25.2-63.654C1094.173,1593.7,1093.623,1594.825,1093.119,1595.969Zm73.635-11.9-36.49-14.443a43.38,43.38,0,0,0-5.574.78l45.541,18.024A46.17,46.17,0,0,0,1166.754,1584.07Zm10.308,19.487-57.651-31.686c-1.144.39-2.282.825-3.38,1.3l61.747,33.955C1177.587,1605.919,1177.347,1604.726,1177.061,1603.556Zm-3.51-9.577-49.685-23.375c-1.4.314-2.759.7-4.091,1.142l55.5,26.118C1174.76,1596.532,1174.194,1595.243,1173.552,1593.979Zm-39.755-24.509c-.406,0-.811.021-1.214.031l28.352,9.217A44.254,44.254,0,0,0,1133.8,1569.471Zm23.811,49.343,16.623,13.763c.4-.884.776-1.779,1.125-2.687l-17.312-14.327A25.558,25.558,0,0,1,1157.608,1618.814Zm-2.506,6.839,14.982,14.069c.545-.758,1.064-1.542,1.566-2.342l-15.3-14.372A27.989,27.989,0,0,1,1155.1,1625.653Zm2.769-14.911,19.139,13.887c.237-.976.445-1.979.62-2.972l-20.676-15.034A24.005,24.005,0,0,1,1157.871,1610.742Zm-12.547,24.612,13.016,15.739c.773-.519,1.537-1.055,2.278-1.607l-12.91-15.6A25.753,25.753,0,0,1,1145.323,1635.353Zm-6.763,2.438L1151.054,1655c.869-.366,1.728-.769,2.569-1.188l-12.19-16.78A25.244,25.244,0,0,1,1138.561,1637.791Z" transform="translate(-1089.311 -1525.36)"/><path class="e" d="M1130.9,1613.38l20.2,44.167v-6.694l-20.2-44.156Zm0-17.824,20.2,52.348v-7.724l-20.2-52.339Zm16.844-26.086,3.358,14.722v-14.722Zm-41.128,133.26a45.214,45.214,0,0,0,11.3-1.457l-11.3-1.272Zm24.284-48.386,15.756,19.836-15.756-17.525v1.545c-.005.831-.046,1.655-.124,2.462l13.816,15.372-14.037-13.83a25.332,25.332,0,0,1-.74,3.168l12.814,12.634-13.193-11.517a24.194,24.194,0,0,1-1.164,2.677l12.545,10.951-13.026-10.051a23.468,23.468,0,0,1-1.5,2.353l12.814,9.886-13.4-9.1a23.993,23.993,0,0,1-1.855,2.1l13.7,9.3-14.442-8.574a26.865,26.865,0,0,1-2.294,1.871l15.322,9.1-16.324-8.4a23.365,23.365,0,0,1-2.921,1.621l17.965,9.237-19.5-8.575a24.933,24.933,0,0,1-4.179,1.193l22.564,9.935-25.785-9.538c-.443.031-.893.046-1.335.046v2.421l25.778,9.54a44.672,44.672,0,0,0,16.394-22.087l-17.888-22.513Zm0-84.874v1.653l20.2,63.541v-9.181l-17.806-56.012Zm8.657,0,11.545,45.746v-11.37l-8.675-34.376Zm-32.941,124.655,18.761,4.445q1.921-.9,3.741-1.961l-22.5-5.348Zm0-4.51,22.713,6.86c1.041-.6,2.054-1.273,3.04-1.978l-25.753-7.785Zm0,8.885,13.043,2.266a42.866,42.866,0,0,0,5.117-1.923l-18.16-3.161Zm24.284-71.465,19.8,37.149a44.569,44.569,0,0,0,.384-5.184l-20.182-37.87Zm0,10.886,18.931,30.856c.329-1.318.586-2.661.789-4.029l-19.72-32.141Zm0,8.909,17.888,25.555c.376-1.117.712-2.25,1-3.414L1130.9,1642Z" transform="translate(-1062.116 -1525.36)"/><path class="f" d="M1164.946,1658.016l32.98-8.468a45.9,45.9,0,0,0,4.705-4.075l-43.787,11.247A45.641,45.641,0,0,0,1164.946,1658.016Zm-7.135-1.6,49.16-15.98c.882-1.2,1.712-2.446,2.473-3.725l-55.822,18.136C1154.98,1655.429,1156.384,1655.959,1157.811,1656.417Zm17.049-18.433-28.046,13.2c.938.6,1.879,1.186,2.859,1.724l65.243-30.694c.2-1.093.378-2.2.5-3.314l-28.113,13.241A24.278,24.278,0,0,1,1174.86,1637.984Zm17.3-11.755,23.514-12.933c-.016-1.035-.065-2.065-.149-3.078l-21.392,11.744A25.082,25.082,0,0,1,1192.161,1626.228Zm3.333-12.251a23.767,23.767,0,0,1-.205,3.1l19.44-12.346c-.208-.96-.445-1.9-.706-2.834l-18.536,11.745C1195.491,1613.761,1195.494,1613.869,1195.494,1613.977Zm-7.058-17.1,14.741-13.827c-.648-.671-1.3-1.324-1.99-1.951l-14.815,13.921A24.727,24.727,0,0,1,1188.435,1596.876Zm-18.383-27.374-39.583,62.376c.437,1.008.9,2,1.417,2.941l15.249-24.019a24.334,24.334,0,0,1,10.938-17.242l15.247-24.028c-.7-.031-1.409-.059-2.116-.059C1170.813,1569.471,1170.435,1569.491,1170.052,1569.5Zm-4.379,68.126-20.618,11.329,18.7-11.874a26.109,26.109,0,0,1-3.173-1.273l-17.018,10.8,15.771-11.462a26.328,26.328,0,0,1-2.5-1.614l-14.9,10.832,13.969-11.554a23.24,23.24,0,0,1-2.067-1.9l-13.674,11.313,12.915-12.121a24.88,24.88,0,0,1-1.736-2.2l-13.069,12.293,12.429-13.257a25.43,25.43,0,0,1-1.417-2.546l-13.043,13.9,12.506-15.126a23.054,23.054,0,0,1-1.039-3.1l-13.6,16.446,13.224-18.2a24.4,24.4,0,0,1-.4-4.185l-15.033,20.689a44.481,44.481,0,0,0,14.9,16.342l23.5-12.912A25.754,25.754,0,0,1,1165.673,1637.628Zm5.531,20.837a44.284,44.284,0,0,0,19.142-4.324l-22.071,4.214C1169.245,1658.419,1170.219,1658.466,1171.2,1658.466Zm-18.005-3.81,59-23.351c.481-1.149.9-2.322,1.3-3.51l-63.656,25.216C1150.923,1653.606,1152.057,1654.152,1153.2,1654.655Zm-11.9-73.635-14.447,36.5a43.993,43.993,0,0,0,.781,5.558l18.029-45.535A46.254,46.254,0,0,0,1141.3,1581.02Zm19.481-10.308-31.684,57.643c.393,1.161.82,2.3,1.309,3.4L1164.352,1570C1163.152,1570.188,1161.964,1570.429,1160.783,1570.712Zm-9.577,3.51-23.382,49.677q.485,2.1,1.154,4.1l26.115-55.5A42.487,42.487,0,0,0,1151.206,1574.222Zm-24.5,39.755c0,.412.016.815.031,1.224l9.207-28.356A44.3,44.3,0,0,0,1126.7,1613.977Zm49.343-23.812,13.748-16.625c-.877-.4-1.764-.782-2.673-1.129l-14.322,17.323A23.358,23.358,0,0,1,1176.046,1590.166Zm6.829,2.509,14.067-14.982c-.761-.542-1.535-1.062-2.332-1.561l-14.376,15.3A25.333,25.333,0,0,1,1182.875,1592.675Zm-14.91-2.777,13.9-19.127c-.98-.245-1.977-.455-2.985-.617l-15.015,20.674A23.633,23.633,0,0,1,1167.964,1589.9Zm24.616,12.563,15.738-13.023c-.517-.773-1.047-1.535-1.607-2.275L1191.1,1600.07A23.363,23.363,0,0,1,1192.581,1602.461Zm2.438,6.756,17.2-12.5c-.36-.874-.769-1.724-1.2-2.566l-16.77,12.19A23.9,23.9,0,0,1,1195.018,1609.217Z" transform="translate(-1030.562 -1525.36)"/><path class="g" d="M1153.445,1595.119l20.214,25.437v-4.466l-20.214-25.439Zm0,9.879,20.214,22.5v-4.16l-20.214-22.5Zm0-21.392,20.214,28.869v-4.842l-20.214-28.866Zm0,74.72h4.885l-4.885-1.818Zm8.7-88.766,11.516,21.613v-5.908l-8.364-15.7Zm-8.7,44.087,20.214,19.937v-3.919l-20.214-19.916Zm0-44.087v.362l20.214,32.954v-5.324l-17.165-27.992Zm20.111,0h-3.062l3.165,6.908v-6.679Zm-20.111,51.755,20.214,17.656v-3.687l-20.214-17.638Zm0,34.347,7.21,2.664h8.011l-15.221-5.628Zm0-9.917,20.214,10.408v-3.137l-20.214-10.406Zm0,5.09,17.018,7.49h3.2V1656.7l-20.214-8.909Zm0-10.492,20.214,11.991v-3.229l-20.214-11.99Zm0-12.113,20.214,15.6v-3.518l-20.214-15.6Zm0,6.3,20.214,13.728v-3.353l-20.214-13.735Z" transform="translate(-988.547 -1525.221)"/><path class="h" d="M1216.022,1569.912l-32.98,8.475a44.571,44.571,0,0,0-4.713,4.08l43.785-11.238A44.188,44.188,0,0,0,1216.022,1569.912Zm7.14,1.62L1174,1587.506a39.527,39.527,0,0,0-2.479,3.721l55.821-18.144A43.043,43.043,0,0,0,1223.162,1571.532Zm-17.06,18.415,28.039-13.2c-.923-.6-1.877-1.19-2.846-1.722l-65.24,30.7c-.209,1.09-.368,2.181-.5,3.3l28.1-13.237A24.372,24.372,0,0,1,1206.1,1589.947Zm-17.3,11.766-23.508,12.933c.015,1.028.061,2.059.146,3.072l21.4-11.753A23.628,23.628,0,0,1,1188.807,1601.713Zm-3.335,12.253a23.414,23.414,0,0,1,.211-3.1l-19.442,12.326q.313,1.442.72,2.845l18.518-11.76C1185.472,1614.176,1185.472,1614.075,1185.472,1613.966Zm7.056,17.081L1177.79,1644.9c.648.667,1.3,1.312,2,1.931l14.82-13.914A22.811,22.811,0,0,1,1192.527,1631.047Zm18.388,27.38,39.593-62.371c-.45-1-.923-1.984-1.435-2.939l-15.25,24.028a24.267,24.267,0,0,1-10.935,17.224l-15.25,24.043c.707.03,1.4.054,2.127.054C1210.139,1658.466,1210.536,1658.442,1210.916,1658.427Zm4.384-68.115,20.613-11.323-18.7,11.866a24.054,24.054,0,0,1,3.165,1.277l17.019-10.8-15.777,11.46a22.5,22.5,0,0,1,2.507,1.622l14.908-10.83-13.969,11.55a23.894,23.894,0,0,1,2.072,1.894l13.658-11.307-12.9,12.123a27.494,27.494,0,0,1,1.738,2.18l13.069-12.269-12.434,13.231a25.81,25.81,0,0,1,1.422,2.545l13.036-13.886-12.509,15.114a23.93,23.93,0,0,1,1.047,3.11l13.6-16.442-13.224,18.2a24.516,24.516,0,0,1,.4,4.183l15.026-20.692a44.656,44.656,0,0,0-14.9-16.343l-23.5,12.92A24.969,24.969,0,0,1,1215.3,1590.312Zm-5.533-20.841a44.457,44.457,0,0,0-19.142,4.312l22.06-4.2C1211.721,1569.515,1210.743,1569.471,1209.767,1569.471Zm18,3.8-58.982,23.351c-.488,1.148-.915,2.322-1.3,3.51l63.662-25.2C1230.045,1574.33,1228.912,1573.782,1227.762,1573.273Zm11.9,73.646,14.445-36.487a44.182,44.182,0,0,0-.777-5.579l-18.029,45.535A45.934,45.934,0,0,0,1239.667,1646.919Zm-19.492,10.3,31.7-57.652c-.4-1.157-.823-2.283-1.312-3.389l-33.96,61.754C1217.814,1657.751,1219,1657.494,1220.174,1657.224Zm9.583-3.517,23.382-49.685c-.317-1.385-.705-2.756-1.147-4.093l-26.123,55.511A41.754,41.754,0,0,0,1229.757,1653.707Zm24.516-39.74c0-.412-.024-.818-.031-1.224l-9.22,28.355A44.293,44.293,0,0,0,1254.274,1613.966Zm-49.348,23.8-13.746,16.623c.874.4,1.766.776,2.669,1.125l14.327-17.313A23.588,23.588,0,0,1,1204.925,1637.768Zm-6.834-2.514-14.069,14.985c.76.553,1.542,1.08,2.334,1.569l14.379-15.3A24.448,24.448,0,0,1,1198.091,1635.253ZM1213,1638.03l-13.9,19.148c.985.231,1.962.434,2.98.612l15.016-20.675A23.622,23.622,0,0,1,1213,1638.03Zm-24.616-12.555-15.735,13.023c.516.781,1.046,1.536,1.615,2.281l15.6-12.919A21.667,21.667,0,0,1,1188.388,1625.475Zm-2.437-6.764-17.2,12.505c.365.87.758,1.731,1.185,2.572l16.772-12.192A26.64,26.64,0,0,1,1185.951,1618.711Z" transform="translate(-969.922 -1525.36)"/><path class="i" d="M1165.3,1658.033l8.9,27.388h2.908l-11.807-36.375Zm0-20.006,18.754,47.394h1.457v-3.888l-20.211-51.05Zm20.211-85.712H1165.3v24.447l20.211,16.72v-3.6l-20.18-16.692,20.18,14.661v-3.441l-18.53-13.455,18.53,11.76v-3.292l-17.064-10.832,17.064,9.384V1574.8l-15.7-8.631,15.7,7.389v-3.077l-14.526-6.83,14.526,5.745v-2.986l-13.5-5.347,13.5,4.386v-2.918l-12.645-4.106,12.645,3.24V1558.8l-11.973-3.07,11.973,2.278v-2.824L1174.064,1553l11.446,1.448ZM1165.3,1685.421h3.712l-3.712-10.369Zm0-61.883,20.211,42.954v-6.518l-20.211-42.956Zm0-33.064,20.211,24.418v-4.356L1165.3,1586.1Zm0-9.7,20.211,18.98v-3.81l-20.211-18.983Zm0,4.51,20.211,21.531v-4.057l-20.211-21.52Zm0,18.406,20.211,31.852v-5.186L1165.3,1598.51Zm0-7.194,20.211,27.819v-4.728l-20.211-27.817Zm0,15.979,20.211,36.758v-5.758l-20.211-36.762Z" transform="translate(-969.922 -1552.314)"/><path class="j" d="M1214.57,1607.722l8.467,32.99a45.063,45.063,0,0,0,4.083,4.7l-11.246-43.789A44.342,44.342,0,0,0,1214.57,1607.722Zm1.615-7.132,15.972,49.163a44.274,44.274,0,0,0,3.718,2.469L1217.73,1596.4C1217.154,1597.759,1216.635,1599.154,1216.185,1600.59Zm18.415,17.049-13.193-28.049c-.6.934-1.193,1.89-1.722,2.865l30.694,65.238q1.628.311,3.307.488l-13.226-28.093A24.384,24.384,0,0,1,1234.6,1617.639Zm11.766,17.291,12.914,23.523c1.047-.024,2.081-.072,3.1-.157l-11.757-21.394A23.776,23.776,0,0,1,1246.365,1634.93Zm12.246,3.353a26.983,26.983,0,0,1-3.1-.209l12.339,19.415c.962-.192,1.908-.426,2.849-.688l-11.773-18.525C1258.838,1638.275,1258.719,1638.283,1258.611,1638.283Zm17.1-7.07,13.838,14.745c.677-.651,1.319-1.3,1.949-2l-13.915-14.819A23.608,23.608,0,0,1,1275.707,1631.213Zm27.381-18.379-62.371-39.591c-1,.437-1.98.911-2.95,1.427l24.028,15.246a24.278,24.278,0,0,1,17.227,10.938l24.034,15.244c.032-.7.054-1.4.054-2.113C1303.11,1613.591,1303.095,1613.209,1303.087,1612.833Zm-68.116-4.387-11.328-20.618,11.858,18.7a21.241,21.241,0,0,1,1.288-3.176l-10.8-17.012,11.462,15.779a24.035,24.035,0,0,1,1.607-2.514l-10.82-14.9,11.55,13.96a25.756,25.756,0,0,1,1.892-2.071l-11.308-13.657,12.124,12.9c.7-.6,1.419-1.185,2.18-1.722l-12.285-13.074,13.254,12.432a23.579,23.579,0,0,1,2.548-1.418l-13.892-13.038,15.108,12.5a23.936,23.936,0,0,1,3.114-1.027l-16.437-13.613,18.2,13.223a24.828,24.828,0,0,1,4.183-.4l-20.7-15.022a44.6,44.6,0,0,0-16.345,14.9l12.915,23.5A24.648,24.648,0,0,1,1234.972,1608.447Zm-20.852,5.539a44.531,44.531,0,0,0,4.314,19.145l-4.2-22.084C1214.166,1612.021,1214.12,1612.99,1214.12,1613.985Zm3.8-18.009,23.359,59c1.142.476,2.322.9,3.507,1.3l-25.205-63.664C1218.987,1593.706,1218.434,1594.832,1217.922,1595.977Zm73.648-11.9-36.5-14.45a45,45,0,0,0-5.564.787l45.53,18.016A46.8,46.8,0,0,0,1291.571,1584.079Zm10.305,19.488-57.661-31.7c-1.139.391-2.266.823-3.384,1.309l61.752,33.945C1302.4,1605.93,1302.157,1604.734,1301.876,1603.567Zm-3.515-9.578-49.69-23.382c-1.375.322-2.748.707-4.083,1.144l55.5,26.118A40.145,40.145,0,0,0,1298.361,1593.989Zm-39.75-24.51c-.411,0-.822.023-1.227.033l28.365,9.21A44.262,44.262,0,0,0,1258.611,1569.479Zm23.809,49.335,16.615,13.765c.411-.877.784-1.768,1.133-2.686l-17.314-14.326A26.677,26.677,0,0,1,1282.42,1618.814Zm-2.514,6.842,15,14.069c.535-.758,1.062-1.543,1.558-2.342l-15.3-14.374A25.051,25.051,0,0,1,1279.906,1625.656Zm2.779-14.911,19.129,13.887c.242-.97.442-1.972.619-2.973l-20.664-15.025A24.221,24.221,0,0,1,1282.685,1610.745Zm-12.55,24.612,13.015,15.739q1.153-.78,2.281-1.607l-12.921-15.6A27.559,27.559,0,0,1,1270.135,1635.357Zm-6.767,2.437,12.5,17.214c.869-.365,1.731-.776,2.569-1.195l-12.2-16.778A23.7,23.7,0,0,1,1263.368,1637.794Z" transform="translate(-893.217 -1525.347)"/><path class="k" d="M1261.221,1658.956v-.126l-20.44-77.574v11.895l17.345,65.806Zm0-89.8h-2.653l2.653,3.177Zm0,62.325-19.828-59.746,19.828,49.176v-8.1l-17.01-42.2,17.01,35.58v-7.027l-14.28-29.867,14.28,25.606v-6.214l-10.9-19.535h-9.544v10.351l20.44,61.589Zm-20.386,27.472h3.065l-3.118-23.454v22.988Zm20.386-85.527-3.142-4.27h-3.757l6.9,9.387Zm0,6.9-7.178-11.171h-3.6l10.778,16.767Zm-8.762,78.626-11.678-59.2V1615.4l8.6,43.561Z" transform="translate(-851.328 -1525.85)"/><path class="l" d="M1203.073,1569.159v.121l20.441,77.569V1634.96l-17.345-65.8Zm0,89.8h2.661l-2.661-3.167Zm0-62.322,19.829,59.746-19.829-49.178v8.094l17.019,42.2-17.019-35.574v7.017l14.288,29.877-14.288-25.6v6.209l10.9,19.533h9.544V1648.61l-20.441-61.582Zm20.379-27.475h-3.772l3.834,24.169v-23.709Zm-20.379,85.522,3.144,4.275h3.762l-6.906-9.381Zm0-6.894,7.186,11.169h3.595l-10.781-16.757Zm8.754-78.628,11.686,59.2v-15.633l-8.6-43.563Z" transform="translate(-910.573 -1525.85)"/><path class="m" d="M1267.331,1619.4a11.9,11.9,0,0,0,8.824-3.671,12.153,12.153,0,0,0,3.672-8.894,11.859,11.859,0,0,0-3.672-8.817,12.092,12.092,0,0,0-8.9-3.677,12.333,12.333,0,0,0-4.788.916l9.9,3.15-11.144-2.53a13.484,13.484,0,0,0-2.772,2.14c-.077.086-.146.173-.216.243l13.643,2.949-14.489-1.995a12.775,12.775,0,0,0-1.637,2.684l15.823,2.149-16.25-1.008a11.607,11.607,0,0,0-.512,2.833l16.576,1.024-16.6.181a13.608,13.608,0,0,0,.358,2.861l16.288-.185-15.932,1.342a11.218,11.218,0,0,0,1.4,2.764l14.735-1.274-13.982,2.274c.255.295.519.587.8.869a12.916,12.916,0,0,0,2,1.645l11.563-1.956-10.383,2.656A12.422,12.422,0,0,0,1267.331,1619.4Z" transform="translate(-829.315 -1486.289)"/></g></g></g></svg>